<?xml version="1.0" encoding="UTF-8" standalone="no"?>
<!DOCTYPE svg PUBLIC "-//W3C//DTD SVG 1.1//EN"
 "http://www.w3.org/Graphics/SVG/1.1/DTD/svg11.dtd">
<!-- Generated by graphviz version 2.38.0 (20140413.2041)
 -->
<!-- Title: Graphical Class Hierarchy Pages: 1 -->
<svg width="522pt" height="1068pt"
 viewBox="0.00 0.00 522.00 1068.00" xmlns="http://www.w3.org/2000/svg" xmlns:xlink="http://www.w3.org/1999/xlink">
<g id="graph0" class="graph" transform="scale(1 1) rotate(0) translate(4 1064)">
<title>Graphical Class Hierarchy</title>
<polygon fill="white" stroke="none" points="-4,4 -4,-1064 518,-1064 518,4 -4,4"/>
<!-- Node164 -->
<g id="node1" class="node"><title>Node164</title>
<polygon fill="white" stroke="#bfbfbf" points="0,-514.5 0,-544.5 239,-544.5 239,-514.5 0,-514.5"/>
<text text-anchor="start" x="8" y="-532.5" font-family="Helvetica,sans-Serif" font-size="10.00">pymoduleconnector.moduleconnectorwrapper.</text>
<text text-anchor="middle" x="119.5" y="-521.5" font-family="Helvetica,sans-Serif" font-size="10.00">_object</text>
</g>
<!-- Node0 -->
<g id="node2" class="node"><title>Node0</title>
<g id="a_node2"><a xlink:href="classpymoduleconnector_1_1moduleconnectorwrapper_1_1_baseband_ap_data.xhtml" target="_top" xlink:title="Represents amplitude phase baseband data coming from the module. ">
<polygon fill="white" stroke="black" points="275,-1029.5 275,-1059.5 514,-1059.5 514,-1029.5 275,-1029.5"/>
<text text-anchor="start" x="283" y="-1047.5" font-family="Helvetica,sans-Serif" font-size="10.00">pymoduleconnector.moduleconnectorwrapper.</text>
<text text-anchor="middle" x="394.5" y="-1036.5" font-family="Helvetica,sans-Serif" font-size="10.00">BasebandApData</text>
</a>
</g>
</g>
<!-- Node164&#45;&gt;Node0 -->
<g id="edge1" class="edge"><title>Node164&#45;&gt;Node0</title>
<path fill="none" stroke="midnightblue" d="M120.136,-555.096C120.462,-636.71 133.222,-892.881 275,-1020.5 278.744,-1023.87 282.828,-1026.82 287.155,-1029.4"/>
<polygon fill="midnightblue" stroke="midnightblue" points="123.637,-554.779 120.16,-544.77 116.637,-554.762 123.637,-554.779"/>
</g>
<!-- Node166 -->
<g id="node3" class="node"><title>Node166</title>
<g id="a_node3"><a xlink:href="classpymoduleconnector_1_1moduleconnectorwrapper_1_1_baseband_iq_data.xhtml" target="_top" xlink:title="Represents I/Q baseband data coming from the module. ">
<polygon fill="white" stroke="black" points="275,-980.5 275,-1010.5 514,-1010.5 514,-980.5 275,-980.5"/>
<text text-anchor="start" x="283" y="-998.5" font-family="Helvetica,sans-Serif" font-size="10.00">pymoduleconnector.moduleconnectorwrapper.</text>
<text text-anchor="middle" x="394.5" y="-987.5" font-family="Helvetica,sans-Serif" font-size="10.00">BasebandIqData</text>
</a>
</g>
</g>
<!-- Node164&#45;&gt;Node166 -->
<g id="edge2" class="edge"><title>Node164&#45;&gt;Node166</title>
<path fill="none" stroke="midnightblue" d="M121.132,-554.579C124.479,-630.321 145.368,-858.45 275,-971.5 278.876,-974.88 283.095,-977.833 287.557,-980.41"/>
<polygon fill="midnightblue" stroke="midnightblue" points="124.628,-554.403 120.755,-544.542 117.633,-554.666 124.628,-554.403"/>
</g>
<!-- Node167 -->
<g id="node4" class="node"><title>Node167</title>
<g id="a_node4"><a xlink:href="classpymoduleconnector_1_1moduleconnectorwrapper_1_1_data_record.xhtml" target="_top" xlink:title="Encapsulates data and information about one data record on disk. ">
<polygon fill="white" stroke="black" points="275,-931.5 275,-961.5 514,-961.5 514,-931.5 275,-931.5"/>
<text text-anchor="start" x="283" y="-949.5" font-family="Helvetica,sans-Serif" font-size="10.00">pymoduleconnector.moduleconnectorwrapper.</text>
<text text-anchor="middle" x="394.5" y="-938.5" font-family="Helvetica,sans-Serif" font-size="10.00">DataRecord</text>
</a>
</g>
</g>
<!-- Node164&#45;&gt;Node167 -->
<g id="edge3" class="edge"><title>Node164&#45;&gt;Node167</title>
<path fill="none" stroke="midnightblue" d="M122.403,-555.071C129.099,-625.632 157.978,-824.327 275,-922.5 279.02,-925.873 283.385,-928.816 287.99,-931.38"/>
<polygon fill="midnightblue" stroke="midnightblue" points="125.869,-554.537 121.508,-544.882 118.896,-555.15 125.869,-554.537"/>
</g>
<!-- Node168 -->
<g id="node5" class="node"><title>Node168</title>
<g id="a_node5"><a xlink:href="classpymoduleconnector_1_1moduleconnectorwrapper_1_1_data_type.xhtml" target="_top" xlink:title="Proxy of C++ XeThru::DataType class. ">
<polygon fill="white" stroke="black" points="275,-882.5 275,-912.5 514,-912.5 514,-882.5 275,-882.5"/>
<text text-anchor="start" x="283" y="-900.5" font-family="Helvetica,sans-Serif" font-size="10.00">pymoduleconnector.moduleconnectorwrapper.</text>
<text text-anchor="middle" x="394.5" y="-889.5" font-family="Helvetica,sans-Serif" font-size="10.00">DataType</text>
</a>
</g>
</g>
<!-- Node164&#45;&gt;Node168 -->
<g id="edge4" class="edge"><title>Node164&#45;&gt;Node168</title>
<path fill="none" stroke="midnightblue" d="M123.949,-554.917C134.107,-619.304 170.089,-789.656 275,-873.5 279.263,-876.907 283.883,-879.87 288.743,-882.443"/>
<polygon fill="midnightblue" stroke="midnightblue" points="127.383,-554.213 122.438,-544.843 120.461,-555.252 127.383,-554.213"/>
</g>
<!-- Node169 -->
<g id="node6" class="node"><title>Node169</title>
<g id="a_node6"><a xlink:href="classpymoduleconnector_1_1moduleconnectorwrapper_1_1_detection_zone.xhtml" target="_top" xlink:title="Representation of the detection zone. ">
<polygon fill="white" stroke="black" points="275,-833.5 275,-863.5 514,-863.5 514,-833.5 275,-833.5"/>
<text text-anchor="start" x="283" y="-851.5" font-family="Helvetica,sans-Serif" font-size="10.00">pymoduleconnector.moduleconnectorwrapper.</text>
<text text-anchor="middle" x="394.5" y="-840.5" font-family="Helvetica,sans-Serif" font-size="10.00">DetectionZone</text>
</a>
</g>
</g>
<!-- Node164&#45;&gt;Node169 -->
<g id="edge5" class="edge"><title>Node164&#45;&gt;Node169</title>
<path fill="none" stroke="midnightblue" d="M125.953,-554.799C139.809,-612.598 182.056,-754.707 275,-824.5 279.532,-827.903 284.426,-830.855 289.556,-833.414"/>
<polygon fill="midnightblue" stroke="midnightblue" points="129.285,-553.671 123.622,-544.717 122.465,-555.248 129.285,-553.671"/>
</g>
<!-- Node170 -->
<g id="node7" class="node"><title>Node170</title>
<g id="a_node7"><a xlink:href="classpymoduleconnector_1_1moduleconnectorwrapper_1_1_detection_zone_limits.xhtml" target="_top" xlink:title="Is an aggrgation of parameters used to represent the detection zone limits. ">
<polygon fill="white" stroke="black" points="275,-784.5 275,-814.5 514,-814.5 514,-784.5 275,-784.5"/>
<text text-anchor="start" x="283" y="-802.5" font-family="Helvetica,sans-Serif" font-size="10.00">pymoduleconnector.moduleconnectorwrapper.</text>
<text text-anchor="middle" x="394.5" y="-791.5" font-family="Helvetica,sans-Serif" font-size="10.00">DetectionZoneLimits</text>
</a>
</g>
</g>
<!-- Node164&#45;&gt;Node170 -->
<g id="edge6" class="edge"><title>Node164&#45;&gt;Node170</title>
<path fill="none" stroke="midnightblue" d="M128.569,-554.399C146.296,-604.885 193.67,-719.27 275,-775.5 279.921,-778.902 285.215,-781.844 290.737,-784.386"/>
<polygon fill="midnightblue" stroke="midnightblue" points="131.779,-552.971 125.234,-544.64 125.155,-555.234 131.779,-552.971"/>
</g>
<!-- Node171 -->
<g id="node8" class="node"><title>Node171</title>
<g id="a_node8"><a xlink:href="classpymoduleconnector_1_1moduleconnectorwrapper_1_1_files.xhtml" target="_top" xlink:title="pymoduleconnector.moduleconnectorwrapper.\lFiles">
<polygon fill="white" stroke="black" points="275,-735.5 275,-765.5 514,-765.5 514,-735.5 275,-735.5"/>
<text text-anchor="start" x="283" y="-753.5" font-family="Helvetica,sans-Serif" font-size="10.00">pymoduleconnector.moduleconnectorwrapper.</text>
<text text-anchor="middle" x="394.5" y="-742.5" font-family="Helvetica,sans-Serif" font-size="10.00">Files</text>
</a>
</g>
</g>
<!-- Node164&#45;&gt;Node171 -->
<g id="edge7" class="edge"><title>Node164&#45;&gt;Node171</title>
<path fill="none" stroke="midnightblue" d="M132.093,-553.57C153.804,-595.883 204.819,-683.203 275,-726.5 280.538,-729.917 286.472,-732.858 292.626,-735.388"/>
<polygon fill="midnightblue" stroke="midnightblue" points="135.175,-551.908 127.558,-544.544 128.92,-555.051 135.175,-551.908"/>
</g>
<!-- Node172 -->
<g id="node9" class="node"><title>Node172</title>
<g id="a_node9"><a xlink:href="classpymoduleconnector_1_1moduleconnectorwrapper_1_1_frame_area.xhtml" target="_top" xlink:title="pymoduleconnector.moduleconnectorwrapper.\lFrameArea">
<polygon fill="white" stroke="black" points="275,-686.5 275,-716.5 514,-716.5 514,-686.5 275,-686.5"/>
<text text-anchor="start" x="283" y="-704.5" font-family="Helvetica,sans-Serif" font-size="10.00">pymoduleconnector.moduleconnectorwrapper.</text>
<text text-anchor="middle" x="394.5" y="-693.5" font-family="Helvetica,sans-Serif" font-size="10.00">FrameArea</text>
</a>
</g>
</g>
<!-- Node164&#45;&gt;Node172 -->
<g id="edge8" class="edge"><title>Node164&#45;&gt;Node172</title>
<path fill="none" stroke="midnightblue" d="M137.634,-552.738C163.486,-585.986 215.78,-646.528 275,-677.5 281.603,-680.953 288.654,-683.911 295.901,-686.443"/>
<polygon fill="midnightblue" stroke="midnightblue" points="140.205,-550.338 131.351,-544.519 134.644,-554.589 140.205,-550.338"/>
</g>
<!-- Node173 -->
<g id="node10" class="node"><title>Node173</title>
<g id="a_node10"><a xlink:href="classpymoduleconnector_1_1moduleconnectorwrapper_1_1_preferred_split_size.xhtml" target="_top" xlink:title="The PreferredSplitSize class allows specifying a split size. ">
<polygon fill="white" stroke="black" points="275,-637.5 275,-667.5 514,-667.5 514,-637.5 275,-637.5"/>
<text text-anchor="start" x="283" y="-655.5" font-family="Helvetica,sans-Serif" font-size="10.00">pymoduleconnector.moduleconnectorwrapper.</text>
<text text-anchor="middle" x="394.5" y="-644.5" font-family="Helvetica,sans-Serif" font-size="10.00">PreferredSplitSize</text>
</a>
</g>
</g>
<!-- Node164&#45;&gt;Node173 -->
<g id="edge9" class="edge"><title>Node164&#45;&gt;Node173</title>
<path fill="none" stroke="midnightblue" d="M147.35,-551.14C176.893,-573.846 226.626,-608.907 275,-628.5 283.463,-631.928 292.471,-634.884 301.596,-637.429"/>
<polygon fill="midnightblue" stroke="midnightblue" points="149.253,-548.186 139.213,-544.803 144.953,-553.709 149.253,-548.186"/>
</g>
<!-- Node174 -->
<g id="node11" class="node"><title>Node174</title>
<g id="a_node11"><a xlink:href="classpymoduleconnector_1_1moduleconnectorwrapper_1_1_pulse_doppler_byte_data.xhtml" target="_top" xlink:title="Represents one half or one range bin of pulse&#45;Doppler in byte format. ">
<polygon fill="white" stroke="black" points="275,-588.5 275,-618.5 514,-618.5 514,-588.5 275,-588.5"/>
<text text-anchor="start" x="283" y="-606.5" font-family="Helvetica,sans-Serif" font-size="10.00">pymoduleconnector.moduleconnectorwrapper.</text>
<text text-anchor="middle" x="394.5" y="-595.5" font-family="Helvetica,sans-Serif" font-size="10.00">PulseDopplerByteData</text>
</a>
</g>
</g>
<!-- Node164&#45;&gt;Node174 -->
<g id="edge10" class="edge"><title>Node164&#45;&gt;Node174</title>
<path fill="none" stroke="midnightblue" d="M172.498,-547.953C202.265,-558.106 240.453,-570.443 275,-579.5 287.183,-582.694 300.164,-585.709 312.901,-588.454"/>
<polygon fill="midnightblue" stroke="midnightblue" points="173.338,-544.541 162.743,-544.601 171.063,-551.161 173.338,-544.541"/>
</g>
<!-- Node175 -->
<g id="node12" class="node"><title>Node175</title>
<g id="a_node12"><a xlink:href="classpymoduleconnector_1_1moduleconnectorwrapper_1_1_pulse_doppler_float_data.xhtml" target="_top" xlink:title="Represents one half or one range bin of pulse&#45;Doppler in float format. ">
<polygon fill="white" stroke="black" points="275,-539.5 275,-569.5 514,-569.5 514,-539.5 275,-539.5"/>
<text text-anchor="start" x="283" y="-557.5" font-family="Helvetica,sans-Serif" font-size="10.00">pymoduleconnector.moduleconnectorwrapper.</text>
<text text-anchor="middle" x="394.5" y="-546.5" font-family="Helvetica,sans-Serif" font-size="10.00">PulseDopplerFloatData</text>
</a>
</g>
</g>
<!-- Node164&#45;&gt;Node175 -->
<g id="edge11" class="edge"><title>Node164&#45;&gt;Node175</title>
<path fill="none" stroke="midnightblue" d="M249.042,-541.271C257.576,-542.053 266.151,-542.838 274.635,-543.615"/>
<polygon fill="midnightblue" stroke="midnightblue" points="249.328,-537.783 239.051,-540.356 248.69,-544.754 249.328,-537.783"/>
</g>
<!-- Node176 -->
<g id="node13" class="node"><title>Node176</title>
<g id="a_node13"><a xlink:href="classpymoduleconnector_1_1moduleconnectorwrapper_1_1_py_data_player.xhtml" target="_top" xlink:title="pymoduleconnector.moduleconnectorwrapper.\lPyDataPlayer">
<polygon fill="white" stroke="black" points="275,-490.5 275,-520.5 514,-520.5 514,-490.5 275,-490.5"/>
<text text-anchor="start" x="283" y="-508.5" font-family="Helvetica,sans-Serif" font-size="10.00">pymoduleconnector.moduleconnectorwrapper.</text>
<text text-anchor="middle" x="394.5" y="-497.5" font-family="Helvetica,sans-Serif" font-size="10.00">PyDataPlayer</text>
</a>
</g>
</g>
<!-- Node164&#45;&gt;Node176 -->
<g id="edge12" class="edge"><title>Node164&#45;&gt;Node176</title>
<path fill="none" stroke="midnightblue" d="M249.042,-518.2C257.576,-517.449 266.151,-516.695 274.635,-515.95"/>
<polygon fill="midnightblue" stroke="midnightblue" points="248.706,-514.716 239.051,-519.078 249.319,-521.689 248.706,-514.716"/>
</g>
<!-- Node177 -->
<g id="node14" class="node"><title>Node177</title>
<g id="a_node14"><a xlink:href="classpymoduleconnector_1_1moduleconnectorwrapper_1_1_py_data_reader.xhtml" target="_top" xlink:title="The PyDataReader class allows reading of xethru data records from a recording. ">
<polygon fill="white" stroke="black" points="275,-441.5 275,-471.5 514,-471.5 514,-441.5 275,-441.5"/>
<text text-anchor="start" x="283" y="-459.5" font-family="Helvetica,sans-Serif" font-size="10.00">pymoduleconnector.moduleconnectorwrapper.</text>
<text text-anchor="middle" x="394.5" y="-448.5" font-family="Helvetica,sans-Serif" font-size="10.00">PyDataReader</text>
</a>
</g>
</g>
<!-- Node164&#45;&gt;Node177 -->
<g id="edge13" class="edge"><title>Node164&#45;&gt;Node177</title>
<path fill="none" stroke="midnightblue" d="M174.818,-511.264C204.272,-501.72 241.42,-490.238 275,-481.5 288.532,-477.979 303.029,-474.6 317.078,-471.527"/>
<polygon fill="midnightblue" stroke="midnightblue" points="173.563,-507.991 165.14,-514.419 175.733,-514.646 173.563,-507.991"/>
</g>
<!-- Node178 -->
<g id="node15" class="node"><title>Node178</title>
<g id="a_node15"><a xlink:href="classpymoduleconnector_1_1moduleconnectorwrapper_1_1_py_data_recorder.xhtml" target="_top" xlink:title="The DataRecorder class allows recording of xethru data types. ">
<polygon fill="white" stroke="black" points="275,-392.5 275,-422.5 514,-422.5 514,-392.5 275,-392.5"/>
<text text-anchor="start" x="283" y="-410.5" font-family="Helvetica,sans-Serif" font-size="10.00">pymoduleconnector.moduleconnectorwrapper.</text>
<text text-anchor="middle" x="394.5" y="-399.5" font-family="Helvetica,sans-Serif" font-size="10.00">PyDataRecorder</text>
</a>
</g>
</g>
<!-- Node164&#45;&gt;Node178 -->
<g id="edge14" class="edge"><title>Node164&#45;&gt;Node178</title>
<path fill="none" stroke="midnightblue" d="M147.952,-508.026C177.641,-485.852 227.165,-451.844 275,-432.5 284.551,-428.638 294.788,-425.338 305.097,-422.527"/>
<polygon fill="midnightblue" stroke="midnightblue" points="145.625,-505.397 139.76,-514.221 149.847,-510.98 145.625,-505.397"/>
</g>
<!-- Node179 -->
<g id="node16" class="node"><title>Node179</title>
<g id="a_node16"><a xlink:href="classpymoduleconnector_1_1moduleconnectorwrapper_1_1_python_module_connector.xhtml" target="_top" xlink:title="This class is responsible for establishing contact with the XeThru module. ">
<polygon fill="white" stroke="black" points="275,-343.5 275,-373.5 514,-373.5 514,-343.5 275,-343.5"/>
<text text-anchor="start" x="283" y="-361.5" font-family="Helvetica,sans-Serif" font-size="10.00">pymoduleconnector.moduleconnectorwrapper.</text>
<text text-anchor="middle" x="394.5" y="-350.5" font-family="Helvetica,sans-Serif" font-size="10.00">PythonModuleConnector</text>
</a>
</g>
</g>
<!-- Node164&#45;&gt;Node179 -->
<g id="edge15" class="edge"><title>Node164&#45;&gt;Node179</title>
<path fill="none" stroke="midnightblue" d="M138.14,-506.142C164.26,-473.322 216.482,-414.153 275,-383.5 282.45,-379.598 290.465,-376.304 298.687,-373.525"/>
<polygon fill="midnightblue" stroke="midnightblue" points="135.186,-504.238 131.778,-514.27 140.698,-508.553 135.186,-504.238"/>
</g>
<!-- Node180 -->
<g id="node17" class="node"><title>Node180</title>
<g id="a_node17"><a xlink:href="classpymoduleconnector_1_1moduleconnectorwrapper_1_1_py_x2_m200.xhtml" target="_top" xlink:title="Interface to the Xethru X2M200 Application module. ">
<polygon fill="white" stroke="black" points="275,-294.5 275,-324.5 514,-324.5 514,-294.5 275,-294.5"/>
<text text-anchor="start" x="283" y="-312.5" font-family="Helvetica,sans-Serif" font-size="10.00">pymoduleconnector.moduleconnectorwrapper.</text>
<text text-anchor="middle" x="394.5" y="-301.5" font-family="Helvetica,sans-Serif" font-size="10.00">PyX2M200</text>
</a>
</g>
</g>
<!-- Node164&#45;&gt;Node180 -->
<g id="edge16" class="edge"><title>Node164&#45;&gt;Node180</title>
<path fill="none" stroke="midnightblue" d="M132.356,-505.422C154.318,-463.513 205.497,-377.529 275,-334.5 281.257,-330.626 288.018,-327.345 295.028,-324.565"/>
<polygon fill="midnightblue" stroke="midnightblue" points="129.215,-503.878 127.761,-514.373 135.442,-507.075 129.215,-503.878"/>
</g>
<!-- Node181 -->
<g id="node18" class="node"><title>Node181</title>
<g id="a_node18"><a xlink:href="classpymoduleconnector_1_1moduleconnectorwrapper_1_1_py_x4_m200.xhtml" target="_top" xlink:title="C++ includes: PyX4M200.hpp. ">
<polygon fill="white" stroke="black" points="275,-245.5 275,-275.5 514,-275.5 514,-245.5 275,-245.5"/>
<text text-anchor="start" x="283" y="-263.5" font-family="Helvetica,sans-Serif" font-size="10.00">pymoduleconnector.moduleconnectorwrapper.</text>
<text text-anchor="middle" x="394.5" y="-252.5" font-family="Helvetica,sans-Serif" font-size="10.00">PyX4M200</text>
</a>
</g>
</g>
<!-- Node164&#45;&gt;Node181 -->
<g id="edge17" class="edge"><title>Node164&#45;&gt;Node181</title>
<path fill="none" stroke="midnightblue" d="M128.795,-504.496C146.802,-454.333 194.459,-341.447 275,-285.5 280.526,-281.661 286.522,-278.392 292.784,-275.609"/>
<polygon fill="midnightblue" stroke="midnightblue" points="125.397,-503.61 125.402,-514.205 132.005,-505.92 125.397,-503.61"/>
</g>
<!-- Node182 -->
<g id="node19" class="node"><title>Node182</title>
<g id="a_node19"><a xlink:href="classpymoduleconnector_1_1moduleconnectorwrapper_1_1_py_x4_m300.xhtml" target="_top" xlink:title="C++ includes: PyX4M300.hpp. ">
<polygon fill="white" stroke="black" points="275,-196.5 275,-226.5 514,-226.5 514,-196.5 275,-196.5"/>
<text text-anchor="start" x="283" y="-214.5" font-family="Helvetica,sans-Serif" font-size="10.00">pymoduleconnector.moduleconnectorwrapper.</text>
<text text-anchor="middle" x="394.5" y="-203.5" font-family="Helvetica,sans-Serif" font-size="10.00">PyX4M300</text>
</a>
</g>
</g>
<!-- Node164&#45;&gt;Node182 -->
<g id="edge18" class="edge"><title>Node164&#45;&gt;Node182</title>
<path fill="none" stroke="midnightblue" d="M126.047,-504.42C140.1,-447.115 182.734,-306.167 275,-236.5 280.118,-232.636 285.698,-229.337 291.558,-226.525"/>
<polygon fill="midnightblue" stroke="midnightblue" points="122.579,-503.879 123.681,-514.416 129.39,-505.492 122.579,-503.879"/>
</g>
<!-- Node183 -->
<g id="node20" class="node"><title>Node183</title>
<g id="a_node20"><a xlink:href="classpymoduleconnector_1_1moduleconnectorwrapper_1_1_py_x_e_p.xhtml" target="_top" xlink:title="C++ includes: PyXEP.hpp. ">
<polygon fill="white" stroke="black" points="275,-147.5 275,-177.5 514,-177.5 514,-147.5 275,-147.5"/>
<text text-anchor="start" x="283" y="-165.5" font-family="Helvetica,sans-Serif" font-size="10.00">pymoduleconnector.moduleconnectorwrapper.</text>
<text text-anchor="middle" x="394.5" y="-154.5" font-family="Helvetica,sans-Serif" font-size="10.00">PyXEP</text>
</a>
</g>
</g>
<!-- Node164&#45;&gt;Node183 -->
<g id="edge19" class="edge"><title>Node164&#45;&gt;Node183</title>
<path fill="none" stroke="midnightblue" d="M124.039,-504.277C134.406,-440.373 170.843,-271.247 275,-187.5 279.752,-183.679 284.948,-180.403 290.426,-177.598"/>
<polygon fill="midnightblue" stroke="midnightblue" points="120.562,-503.857 122.493,-514.275 127.48,-504.927 120.562,-503.857"/>
</g>
<!-- Node184 -->
<g id="node21" class="node"><title>Node184</title>
<g id="a_node21"><a xlink:href="classpymoduleconnector_1_1moduleconnectorwrapper_1_1_recording_options.xhtml" target="_top" xlink:title="The RecordingOptions class allows specifying options for recording. ">
<polygon fill="white" stroke="black" points="275,-98.5 275,-128.5 514,-128.5 514,-98.5 275,-98.5"/>
<text text-anchor="start" x="283" y="-116.5" font-family="Helvetica,sans-Serif" font-size="10.00">pymoduleconnector.moduleconnectorwrapper.</text>
<text text-anchor="middle" x="394.5" y="-105.5" font-family="Helvetica,sans-Serif" font-size="10.00">RecordingOptions</text>
</a>
</g>
</g>
<!-- Node164&#45;&gt;Node184 -->
<g id="edge20" class="edge"><title>Node164&#45;&gt;Node184</title>
<path fill="none" stroke="midnightblue" d="M122.488,-504.104C129.406,-434.019 158.804,-236.61 275,-138.5 279.498,-134.702 284.43,-131.436 289.647,-128.63"/>
<polygon fill="midnightblue" stroke="midnightblue" points="118.988,-503.947 121.561,-514.225 125.959,-504.586 118.988,-503.947"/>
</g>
<!-- Node185 -->
<g id="node22" class="node"><title>Node185</title>
<g id="a_node22"><a xlink:href="classpymoduleconnector_1_1moduleconnectorwrapper_1_1_respiration_data.xhtml" target="_top" xlink:title="Represents the respiration status data coming from the module. ">
<polygon fill="white" stroke="black" points="275,-49.5 275,-79.5 514,-79.5 514,-49.5 275,-49.5"/>
<text text-anchor="start" x="283" y="-67.5" font-family="Helvetica,sans-Serif" font-size="10.00">pymoduleconnector.moduleconnectorwrapper.</text>
<text text-anchor="middle" x="394.5" y="-56.5" font-family="Helvetica,sans-Serif" font-size="10.00">RespirationData</text>
</a>
</g>
</g>
<!-- Node164&#45;&gt;Node185 -->
<g id="edge21" class="edge"><title>Node164&#45;&gt;Node185</title>
<path fill="none" stroke="midnightblue" d="M121.238,-504.067C124.888,-428.283 146.557,-202.27 275,-89.5 279.345,-85.6851 284.124,-82.4014 289.194,-79.5787"/>
<polygon fill="midnightblue" stroke="midnightblue" points="117.738,-503.99 120.819,-514.127 124.732,-504.281 117.738,-503.99"/>
</g>
<!-- Node186 -->
<g id="node23" class="node"><title>Node186</title>
<g id="a_node23"><a xlink:href="classpymoduleconnector_1_1moduleconnectorwrapper_1_1_sleep_data.xhtml" target="_top" xlink:title="Represents the sleep status data coming from the module. ">
<polygon fill="white" stroke="black" points="275,-0.5 275,-30.5 514,-30.5 514,-0.5 275,-0.5"/>
<text text-anchor="start" x="283" y="-18.5" font-family="Helvetica,sans-Serif" font-size="10.00">pymoduleconnector.moduleconnectorwrapper.</text>
<text text-anchor="middle" x="394.5" y="-7.5" font-family="Helvetica,sans-Serif" font-size="10.00">SleepData</text>
</a>
</g>
</g>
<!-- Node164&#45;&gt;Node186 -->
<g id="edge22" class="edge"><title>Node164&#45;&gt;Node186</title>
<path fill="none" stroke="midnightblue" d="M120.216,-504.052C120.783,-422.905 134.188,-168.134 275,-40.5 279.206,-36.6874 283.843,-33.401 288.774,-30.5721"/>
<polygon fill="midnightblue" stroke="midnightblue" points="116.716,-504.317 120.209,-514.319 123.716,-504.321 116.716,-504.317"/>
</g>
</g>
</svg>
